{"title":"Parramatta Eels vs South Syndey Rabbitohs (Round 10 - 2016)","uid":14615131,"size":2274118494,"categoryP":"video","categoryS":"hd___tv_shows","magnet":"?xt=urn:btih:817f3dc87becf52ff972e29bba57d7af501d0e10&amp;dn=Parramatta+Eels+vs+South+Syndey+Rabbitohs+%28Round+10+-+2016%29&amp;tr=udp%3A%2F%2Ftracker.leechers-paradise.org%3A6969&amp;tr=udp%3A%2F%2Fzer0day.ch%3A1337&amp;tr=udp%3A%2F%2Fopen.demonii.com%3A1337&amp;tr=udp%3A%2F%2Ftracker.coppersurfer.tk%3A6969&amp;tr=udp%3A%2F%2Fexodus.desync.com%3A6969","seeders":0,"leechers":0,"uploader":"riseagainstMPAA1","files":1,"time":1463191788,"description":"Use your favourite Media Player to view. I use VLC. These are encoded in FLV format, you can still use VLC to view.\r\n\r\nSCREENSHOTS - http://i.imgur.com/K12k13E.jpg\r\n\r\nGeneral\r\nFormat : Flash Video\r\nFile size : 2.12 GiB\r\nDuration : 2h 17mn\r\nOverall bit rate mode : Variable\r\nOverall bit rate : 2 200 Kbps\r\n\r\nVideo\r\nFormat : AVC\r\nFormat/Info : Advanced Video Codec\r\nFormat profile :   \r\nFormat settings, CABAC : Yes\r\nFormat settings, ReFrames : 1 frame\r\nCodec ID : 7\r\nDuration : 2h 17mn\r\nBit rate mode : Variable\r\nBit rate : 1 760 Kbps\r\nMaximum bit rate : 2 011 Kbps\r\nWidth : 1 280 pixels\r\nHeight : 720 pixels\r\nDisplay aspect ratio : 16:9\r\nFrame rate mode : Constant\r\nFrame rate : 25.000 fps\r\nColor space : YUV\r\nChroma subsampling : 4:2:0\r\nBit depth : 8 bits\r\nScan type : Progressive\r\nBits/(Pixel*Frame) : 0.076\r\nStream size : 1.69 GiB (80%)\r\n\r\nAudio\r\nFormat : AAC\r\nFormat/Info : Advanced Audio Codec\r\nFormat profile : LC\r\nCodec ID : 10\r\nDuration : 2h 17mn\r\nBit rate : 313 Kbps\r\nChannel(s) : 2 channels\r\nChannel positions : Front: L R\r\nSampling rate : 44.1 KHz\r\nFrame rate : 43.066 fps (1024 spf)\r\nCompression mode : Lossy\r\nStream size : 308 MiB (14%)","torrent":{"xt":"urn:btih:817f3dc87becf52ff972e29bba57d7af501d0e10","amp;dn":"Parramatta+Eels+vs+South+Syndey+Rabbitohs+%28Round+10+-+2016%29","amp;tr":["udp%3A%2F%2Ftracker.leechers-paradise.org%3A6969","udp%3A%2F%2Fzer0day.ch%3A1337","udp%3A%2F%2Fopen.demonii.com%3A1337","udp%3A%2F%2Ftracker.coppersurfer.tk%3A6969","udp%3A%2F%2Fexodus.desync.com%3A6969"],"infoHash":"817f3dc87becf52ff972e29bba57d7af501d0e10","infoHashBuffer":{"type":"Buffer","data":[129,127,61,200,123,236,245,47,249,114,226,155,186,87,215,175,80,29,14,16]},"announce":[],"urlList":[]}}